<svg width="121" height="56" viewBox="0 0 121 56" fill="none" xmlns="http://www.w3.org/2000/svg">
<g clip-path="url(#clip0_2068_770)">
<path d="M44.4592 21.1232C44.1299 19.8932 43.1632 18.9266 41.9333 18.5974C39.7062 18 30.7715 18 30.7715 18C30.7715 18 21.8369 18 19.6097 18.5974C18.3797 18.9266 17.4131 19.8932 17.0838 21.1232C16.4865 23.3504 16.4865 28 16.4865 28C16.4865 28 16.4865 32.6496 17.0838 34.8768C17.4131 36.1068 18.3797 37.0734 19.6097 37.4026C21.8369 38 30.7715 38 30.7715 38C30.7715 38 39.7062 38 41.9333 37.4026C43.1632 37.0734 44.1299 36.1068 44.4592 34.8768C45.0566 32.6496 45.0566 28 45.0566 28C45.0566 28 45.0541 23.3504 44.4592 21.1232Z" fill="#FF0000"/>
<path d="M27.9117 32.2854L35.3341 28.0004L27.9117 23.7153V32.2854Z" fill="white"/>
<path d="M51.0889 31.0036L47.881 19.4185H50.6796L51.8039 24.6701C52.0908 25.9636 52.3001 27.0666 52.4365 27.9791H52.5187C52.6128 27.3253 52.8246 26.2294 53.1515 24.6889L54.3156 19.4185H57.1143L53.8664 31.0036V36.561H51.0866V31.0036H51.0889Z" fill="white"/>
<path d="M57.9561 36.1937C57.3917 35.8127 56.9895 35.22 56.7496 34.4157C56.5121 33.6114 56.3922 32.5437 56.3922 31.2078V29.3898C56.3922 28.0422 56.5286 26.9581 56.8014 26.142C57.0742 25.3259 57.4999 24.7285 58.0784 24.3546C58.657 23.9806 59.4166 23.7925 60.3574 23.7925C61.284 23.7925 62.0248 23.983 62.5845 24.364C63.1419 24.745 63.5511 25.3423 63.8098 26.1514C64.0685 26.9628 64.1979 28.0422 64.1979 29.3898V31.2078C64.1979 32.5437 64.0709 33.6161 63.8193 34.4251C63.5676 35.2365 63.1584 35.8292 62.5939 36.2031C62.0295 36.5771 61.2628 36.7652 60.2962 36.7652C59.299 36.7675 58.5206 36.5747 57.9561 36.1937ZM61.1217 34.2323C61.2769 33.8231 61.3569 33.1575 61.3569 32.2309V28.3292C61.3569 27.4308 61.2793 26.7723 61.1217 26.3583C60.9641 25.9421 60.689 25.7351 60.2938 25.7351C59.9129 25.7351 59.6424 25.9421 59.4872 26.3583C59.3296 26.7746 59.252 27.4308 59.252 28.3292V32.2309C59.252 33.1575 59.3272 33.8254 59.4778 34.2323C59.6283 34.6415 59.8987 34.8461 60.2938 34.8461C60.689 34.8461 60.9641 34.6415 61.1217 34.2323Z" fill="white"/>
<path d="M73.3018 36.5634H71.0959L70.8512 35.03H70.7901C70.1903 36.1871 69.2919 36.7656 68.0925 36.7656C67.2623 36.7656 66.6485 36.4928 66.2534 35.9496C65.8583 35.4039 65.6608 34.5526 65.6608 33.3955V24.0375H68.4807V33.2308C68.4807 33.7906 68.5418 34.188 68.6641 34.4256C68.7864 34.6631 68.991 34.783 69.2779 34.783C69.5225 34.783 69.7577 34.7078 69.9835 34.5573C70.2093 34.4067 70.3738 34.2162 70.4843 33.9858V24.0352H73.3018V36.5634Z" fill="white"/>
<path d="M80.962 21.6876H78.1632V36.5629H75.4045V21.6876H72.6059V19.4204H80.962V21.6876Z" fill="white"/>
<path d="M87.7632 36.5634H85.5572L85.3126 35.03H85.2515C84.6518 36.1871 83.7534 36.7656 82.5539 36.7656C81.7237 36.7656 81.1099 36.4928 80.7148 35.9496C80.3197 35.4039 80.1221 34.5526 80.1221 33.3955V24.0375H82.942V33.2308C82.942 33.7906 83.0031 34.188 83.1254 34.4256C83.2477 34.6631 83.4523 34.783 83.7393 34.783C83.9838 34.783 84.219 34.7078 84.4448 34.5573C84.6706 34.4067 84.8352 34.2162 84.9457 33.9858V24.0352H87.7632V36.5634Z" fill="white"/>
<path d="M97.0954 26.0387C96.9237 25.2485 96.6485 24.677 96.2676 24.3219C95.8866 23.9667 95.3621 23.7903 94.6942 23.7903C94.1768 23.7903 93.6923 23.9362 93.2431 24.2301C92.7939 24.5241 92.4458 24.9075 92.2012 25.3849H92.1801V18.7856H89.4637V36.5608H91.792L92.0789 35.3755H92.1401C92.3588 35.7988 92.6857 36.1304 93.1208 36.3774C93.5559 36.622 94.0404 36.7443 94.5719 36.7443C95.5244 36.7443 96.2276 36.3045 96.6768 35.4272C97.126 34.5476 97.3517 33.1765 97.3517 31.3092V29.3266C97.3517 27.9272 97.2647 26.8289 97.0954 26.0387ZM94.5107 31.1492C94.5107 32.0617 94.4731 32.7767 94.3978 33.2941C94.3226 33.8115 94.1979 34.1808 94.0192 34.3971C93.8428 34.6158 93.6029 34.724 93.3042 34.724C93.0714 34.724 92.8574 34.6699 92.6598 34.5594C92.4623 34.4512 92.3024 34.2866 92.1801 34.0702V26.9606C92.2741 26.6196 92.4388 26.3421 92.6716 26.1234C92.9021 25.9046 93.1561 25.7965 93.4265 25.7965C93.7135 25.7965 93.9345 25.9093 94.0898 26.1328C94.2473 26.3585 94.3555 26.7348 94.4167 27.2664C94.4778 27.7979 94.5084 28.5528 94.5084 29.5335V31.1492H94.5107Z" fill="white"/>
<path d="M101.352 31.8712C101.352 32.6755 101.376 33.2776 101.423 33.6798C101.47 34.0819 101.569 34.3736 101.719 34.5594C101.87 34.7428 102.1 34.8345 102.413 34.8345C102.834 34.8345 103.125 34.6699 103.281 34.343C103.438 34.0161 103.523 33.4705 103.537 32.7085L105.969 32.8519C105.983 32.9601 105.99 33.1106 105.99 33.3011C105.99 34.4582 105.672 35.3237 105.04 35.8952C104.407 36.4667 103.511 36.7536 102.354 36.7536C100.964 36.7536 99.9905 36.3185 99.4331 35.446C98.8734 34.5735 98.5959 33.2259 98.5959 31.4008V29.2136C98.5959 27.3345 98.8852 25.9611 99.4637 25.0956C100.042 24.2301 101.032 23.7974 102.436 23.7974C103.403 23.7974 104.146 23.9738 104.664 24.3289C105.181 24.684 105.545 25.2343 105.757 25.9846C105.969 26.7348 106.075 27.7696 106.075 29.0913V31.2362H101.352V31.8712ZM101.71 25.9681C101.566 26.1445 101.472 26.4338 101.423 26.8359C101.376 27.2381 101.352 27.8472 101.352 28.6657V29.5641H103.415V28.6657C103.415 27.8613 103.387 27.2522 103.332 26.8359C103.278 26.4197 103.18 26.128 103.036 25.9564C102.893 25.787 102.672 25.7 102.373 25.7C102.072 25.7024 101.851 25.7917 101.71 25.9681Z" fill="white"/>
</g>
<defs>
<clipPath id="clip0_2068_770">
<rect width="90" height="20" fill="white" transform="translate(16.4865 18)"/>
</clipPath>
</defs>
</svg>
