<svg width="41" height="40" viewBox="0 0 41 40" fill="none" xmlns="http://www.w3.org/2000/svg">
<path d="M18.4865 27.9999H22.4865C22.4865 29.0999 21.5865 29.9999 20.4865 29.9999C19.3865 29.9999 18.4865 29.0999 18.4865 27.9999ZM28.4865 25.3499V26.9999H12.4865V25.3499L14.4865 23.4699V18.3199C14.4865 15.3999 16.0465 13.0999 18.4865 12.3399V11.9599C18.4865 10.5399 19.9764 9.45991 21.4764 10.1999C22.1264 10.5199 22.4865 11.2299 22.4865 11.9599V12.3499C24.9265 13.0999 26.4865 15.4099 26.4865 18.3299V23.4799L28.4865 25.3499ZM27.4865 25.7699L25.4865 23.8899V18.4199C25.4865 15.9499 24.2964 14.0599 22.3565 13.3199C21.0964 12.7899 19.7164 12.8199 18.5164 13.3499C16.6364 14.1099 15.4865 15.9899 15.4865 18.4199V23.8899L13.4865 25.7699V25.9999H27.4865V25.7699Z" fill="white"/>
</svg>
