<svg width="65" height="40" viewBox="0 0 65 40" fill="none" xmlns="http://www.w3.org/2000/svg">
<path d="M62.4865 0.5C63.3149 0.5 63.9865 1.17157 63.9865 2V38C63.9865 38.8284 63.3149 39.5 62.4865 39.5H0.98645V0.5H62.4865Z" fill="#303030"/>
<path d="M62.4865 0.5C63.3149 0.5 63.9865 1.17157 63.9865 2V38C63.9865 38.8284 63.3149 39.5 62.4865 39.5H0.98645V0.5H62.4865Z" stroke="#303030"/>
<rect width="50" height="36" transform="translate(7.48645 2)" fill="#303030"/>
<path d="M41.3565 28.17L35.7664 22.58C36.8364 21.35 37.4865 19.75 37.4865 18C37.4865 14.13 34.3565 11 30.4865 11C26.6165 11 23.4865 14.13 23.4865 18C23.4865 21.87 26.6165 25 30.4865 25C32.2365 25 33.8365 24.35 35.0665 23.29L40.6565 28.88L41.3565 28.17ZM30.4865 24C27.1765 24 24.4865 21.31 24.4865 18C24.4865 14.69 27.1765 12 30.4865 12C33.7964 12 36.4865 14.69 36.4865 18C36.4865 21.31 33.7964 24 30.4865 24Z" fill="white"/>
</svg>
